<svg xmlns="http://www.w3.org/2000/svg" version="1.1" xmlns:xlink="http://www.w3.org/1999/xlink" xmlns:svgjs="http://svgjs.dev/svgjs" viewBox="0 0 800 800"><defs><linearGradient x1="50%" y1="0%" x2="50%" y2="100%" id="cccoil-grad"><stop stop-color="hsl(162, 100%, 58%)" stop-opacity="1" offset="0%"></stop><stop stop-color="hsl(270, 73%, 53%)" stop-opacity="1" offset="100%"></stop></linearGradient></defs><g stroke="url(#cccoil-grad)" fill="none" stroke-linecap="round"><circle r="360" cx="400" cy="400" stroke-width="3.5" stroke-dasharray="2262 2262" transform="rotate(360, 400, 400)" opacity="0.54"></circle><circle r="352" cx="400" cy="400" stroke-width="3.5" stroke-dasharray="2161 2212" transform="rotate(352, 400, 400)" opacity="0.94"></circle><circle r="344" cx="400" cy="400" stroke-width="3.5" stroke-dasharray="2063 2161" transform="rotate(344, 400, 400)" opacity="0.66"></circle><circle r="336" cx="400" cy="400" stroke-width="3.5" stroke-dasharray="1967 2111" transform="rotate(335, 400, 400)" opacity="0.61"></circle><circle r="328" cx="400" cy="400" stroke-width="3.5" stroke-dasharray="1874 2061" transform="rotate(327, 400, 400)" opacity="0.95"></circle><circle r="320" cx="400" cy="400" stroke-width="3.5" stroke-dasharray="1782 2011" transform="rotate(319, 400, 400)" opacity="0.67"></circle><circle r="312" cx="400" cy="400" stroke-width="3.5" stroke-dasharray="1693 1960" transform="rotate(311, 400, 400)" opacity="0.40"></circle><circle r="304" cx="400" cy="400" stroke-width="3.5" stroke-dasharray="1606 1910" transform="rotate(303, 400, 400)" opacity="0.38"></circle><circle r="296" cx="400" cy="400" stroke-width="3.5" stroke-dasharray="1522 1860" transform="rotate(295, 400, 400)" opacity="0.94"></circle><circle r="288" cx="400" cy="400" stroke-width="3.5" stroke-dasharray="1439 1810" transform="rotate(286, 400, 400)" opacity="0.71"></circle><circle r="280" cx="400" cy="400" stroke-width="3.5" stroke-dasharray="1359 1759" transform="rotate(278, 400, 400)" opacity="0.10"></circle><circle r="272" cx="400" cy="400" stroke-width="3.5" stroke-dasharray="1282 1709" transform="rotate(270, 400, 400)" opacity="0.98"></circle><circle r="264" cx="400" cy="400" stroke-width="3.5" stroke-dasharray="1206 1659" transform="rotate(262, 400, 400)" opacity="0.85"></circle><circle r="256" cx="400" cy="400" stroke-width="3.5" stroke-dasharray="1133 1608" transform="rotate(254, 400, 400)" opacity="0.72"></circle><circle r="248" cx="400" cy="400" stroke-width="3.5" stroke-dasharray="1062 1558" transform="rotate(245, 400, 400)" opacity="0.26"></circle><circle r="240" cx="400" cy="400" stroke-width="3.5" stroke-dasharray="994 1508" transform="rotate(237, 400, 400)" opacity="0.46"></circle><circle r="232" cx="400" cy="400" stroke-width="3.5" stroke-dasharray="928 1458" transform="rotate(229, 400, 400)" opacity="0.49"></circle><circle r="224" cx="400" cy="400" stroke-width="3.5" stroke-dasharray="864 1407" transform="rotate(221, 400, 400)" opacity="0.60"></circle><circle r="216" cx="400" cy="400" stroke-width="3.5" stroke-dasharray="802 1357" transform="rotate(213, 400, 400)" opacity="0.59"></circle><circle r="208" cx="400" cy="400" stroke-width="3.5" stroke-dasharray="743 1307" transform="rotate(205, 400, 400)" opacity="0.70"></circle><circle r="200" cx="400" cy="400" stroke-width="3.5" stroke-dasharray="685 1257" transform="rotate(196, 400, 400)" opacity="0.97"></circle><circle r="192" cx="400" cy="400" stroke-width="3.5" stroke-dasharray="631 1206" transform="rotate(188, 400, 400)" opacity="0.13"></circle><circle r="184" cx="400" cy="400" stroke-width="3.5" stroke-dasharray="578 1156" transform="rotate(180, 400, 400)" opacity="0.83"></circle><circle r="176" cx="400" cy="400" stroke-width="3.5" stroke-dasharray="528 1106" transform="rotate(172, 400, 400)" opacity="0.13"></circle><circle r="168" cx="400" cy="400" stroke-width="3.5" stroke-dasharray="480 1056" transform="rotate(164, 400, 400)" opacity="0.78"></circle><circle r="160" cx="400" cy="400" stroke-width="3.5" stroke-dasharray="434 1005" transform="rotate(155, 400, 400)" opacity="0.81"></circle><circle r="152" cx="400" cy="400" stroke-width="3.5" stroke-dasharray="391 955" transform="rotate(147, 400, 400)" opacity="0.12"></circle><circle r="144" cx="400" cy="400" stroke-width="3.5" stroke-dasharray="350 905" transform="rotate(139, 400, 400)" opacity="0.71"></circle><circle r="136" cx="400" cy="400" stroke-width="3.5" stroke-dasharray="311 855" transform="rotate(131, 400, 400)" opacity="0.67"></circle><circle r="128" cx="400" cy="400" stroke-width="3.5" stroke-dasharray="274 804" transform="rotate(123, 400, 400)" opacity="0.37"></circle><circle r="120" cx="400" cy="400" stroke-width="3.5" stroke-dasharray="240 754" transform="rotate(115, 400, 400)" opacity="0.42"></circle><circle r="112" cx="400" cy="400" stroke-width="3.5" stroke-dasharray="208 704" transform="rotate(106, 400, 400)" opacity="0.20"></circle><circle r="104" cx="400" cy="400" stroke-width="3.5" stroke-dasharray="178 653" transform="rotate(98, 400, 400)" opacity="0.48"></circle><circle r="96" cx="400" cy="400" stroke-width="3.5" stroke-dasharray="151 603" transform="rotate(90, 400, 400)" opacity="0.93"></circle><circle r="88" cx="400" cy="400" stroke-width="3.5" stroke-dasharray="126 553" transform="rotate(82, 400, 400)" opacity="0.71"></circle><circle r="80" cx="400" cy="400" stroke-width="3.5" stroke-dasharray="103 503" transform="rotate(74, 400, 400)" opacity="0.34"></circle><circle r="72" cx="400" cy="400" stroke-width="3.5" stroke-dasharray="82 452" transform="rotate(65, 400, 400)" opacity="0.20"></circle><circle r="64" cx="400" cy="400" stroke-width="3.5" stroke-dasharray="64 402" transform="rotate(57, 400, 400)" opacity="0.58"></circle><circle r="56" cx="400" cy="400" stroke-width="3.5" stroke-dasharray="48 352" transform="rotate(49, 400, 400)" opacity="0.91"></circle><circle r="48" cx="400" cy="400" stroke-width="3.5" stroke-dasharray="34 302" transform="rotate(41, 400, 400)" opacity="0.32"></circle><circle r="40" cx="400" cy="400" stroke-width="3.5" stroke-dasharray="23 251" transform="rotate(33, 400, 400)" opacity="0.07"></circle><circle r="32" cx="400" cy="400" stroke-width="3.5" stroke-dasharray="14 201" transform="rotate(25, 400, 400)" opacity="0.63"></circle><circle r="24" cx="400" cy="400" stroke-width="3.5" stroke-dasharray="7 151" transform="rotate(16, 400, 400)" opacity="0.59"></circle><circle r="16" cx="400" cy="400" stroke-width="3.5" stroke-dasharray="2 101" transform="rotate(8, 400, 400)" opacity="0.50"></circle><circle r="8" cx="400" cy="400" stroke-width="3.5" stroke-dasharray="0 50" opacity="0.59"></circle></g></svg>