<svg width="1061" height="810" viewBox="0 0 1061 810" fill="none" xmlns="http://www.w3.org/2000/svg">
<path opacity="0.89" d="M525.33 28.2375C546.57 19.395 571.365 14.8275 599.4 14.3325C627.728 16.0425 659.453 21.735 693.788 30.9825C728.033 42.1875 763.943 56.5875 799.763 73.575C833.108 92.0475 863.505 112.658 888.098 134.753C906.053 157.815 914.67 181.957 911.88 206.617C900.293 231.795 877.32 257.22 844.515 282.398C808.695 307.845 769.95 332.865 733.365 357.008C706.725 381.285 691.2 404.55 690.12 426.33C706.14 448.088 734.558 467.168 770.67 483.435C812.948 499.523 852.93 512.64 885.983 522.72C919.665 535.905 910.935 547.38 874.598 546.728C841.905 546.188 805.365 544.118 767.723 541.103C728.753 539.955 691.178 539.01 656.415 538.875C622.148 541.935 591.098 546.818 563.648 553.905C536.648 564.953 512.82 578.498 492.368 594.248C471.893 613.418 455.445 632.903 442.733 651.758C429.818 671.918 420.48 689.918 414.428 704.993C400.635 733.118 374.535 727.583 353.835 710.168C333.63 696.285 309.69 679.613 282.735 660.758C253.125 641.363 223.38 620.28 195.975 598.05C172.103 575.685 155.048 552.465 147.105 528.705C147.645 504.945 158.22 481.77 177.165 459.338C201.488 436.77 230.243 414.72 260.888 393.21C290.79 371.318 319.095 349.673 344.498 328.298C365.513 306.293 382.995 284.288 397.35 262.418C407.385 239.828 415.71 217.283 423.45 195.03C428.648 172.283 434.903 150.03 443.138 128.722C450.315 107.482 460.418 87.6825 473.94 69.9075C487.103 53.1 504.113 38.9925 525.33 28.2375Z" stroke="url(#paint0_linear_2_3)" stroke-width="2.5" stroke-linecap="round"/>
<path opacity="0.62" d="M578.591 36.4002C600.525 30.1518 625.462 28.4452 653.042 31.0573C680.621 35.8212 710.879 44.7946 743.103 57.4864C774.812 72.0662 807.502 89.8868 839.402 110.197C868.565 131.638 894.22 154.798 913.822 178.768C926.862 202.878 930.63 227.036 923.43 250.456C907.971 273.409 881.818 295.406 846.575 316.092C808.891 336.742 768.748 356.719 731.008 376.094C702.952 396.737 685.671 417.642 682.308 438.656C695.238 461.574 720.294 483.26 753.117 503.044C792.056 523.407 829.436 540.643 860.813 554.188C893.595 571.022 888.816 582.062 856.133 577.948C825.947 574.17 791.817 568.482 756.331 561.797C719.049 556.714 682.793 551.956 648.905 548.267C614.969 547.698 583.802 549.22 555.902 553.208C527.942 561.017 502.836 571.539 480.866 584.488C458.513 600.723 440.151 617.696 425.574 634.455C410.578 652.478 399.333 668.833 391.543 682.761C373.393 708.774 344.289 701.363 324.345 682.45C305.226 666.94 282.943 648.275 258.144 627.095C231.061 605.105 204.222 581.421 179.962 556.793C159.246 532.466 145.28 507.954 140.234 483.873C143.387 460.773 156.229 439.281 177.132 419.366C203.342 399.98 233.95 381.538 266.492 363.799C298.582 345.667 329.284 327.576 357.346 309.404C381.406 290.197 402.117 270.576 419.794 250.737C433.369 229.761 445.175 208.601 456.247 187.718C464.804 166.064 474.149 145.025 485.148 125.152C495.042 105.241 507.497 87.0567 523.002 71.2675C537.998 56.3475 556.418 44.5008 578.591 36.4002Z" stroke="url(#paint1_linear_2_3)" stroke-width="2.5" stroke-linecap="round"/>
<path opacity="0.69" d="M629.703 51.7609C652.04 48.1523 676.749 49.2681 703.477 54.8397C729.875 62.4837 758.297 74.4689 787.967 90.2644C816.795 107.757 845.859 128.449 873.553 151.408C898.277 175.095 919.081 200.004 933.653 224.963C941.86 249.361 941.05 272.778 929.788 294.249C910.957 314.482 882.211 332.642 845.242 348.622C806.3 364.435 765.395 379.367 727.116 394.042C698.089 411.049 679.344 429.452 673.828 449.51C683.641 473.179 705.173 496.966 734.389 519.753C769.59 543.819 803.934 564.769 833.228 581.563C864.57 602.009 863.338 613.649 834.51 606.886C807.111 600.439 775.732 591.66 742.778 581.723C707.685 573.105 673.201 564.84 640.621 557.812C607.483 553.727 576.692 551.933 548.738 552.8C520.251 557.286 494.288 564.683 471.211 574.729C447.376 587.879 427.418 602.133 411.218 616.631C394.46 632.314 381.474 646.81 372.072 659.357C349.692 682.564 317.701 672.369 298.649 651.875C280.8 634.789 260.345 614.263 237.951 590.989C213.619 566.724 189.915 540.78 168.976 514.197C151.55 488.308 140.755 462.927 138.588 438.897C144.215 416.714 159.081 397.114 181.589 379.904C209.268 363.803 241.26 349.117 275.216 335.314C308.982 321.141 341.639 306.868 371.88 292.253C398.567 276.24 422.128 259.464 442.768 242.135C459.63 223.285 474.686 204.054 488.843 185.003C500.604 164.944 512.88 145.54 526.482 127.467C538.919 109.234 553.548 92.9767 570.763 79.3675C587.393 66.5676 606.946 57.1428 629.703 51.7609Z" stroke="url(#paint2_linear_2_3)" stroke-width="2.5" stroke-linecap="round"/>
<path opacity="0.23" d="M677.67 73.8667C700.082 72.8775 724.227 76.7331 749.693 85.1161C774.609 95.4059 800.813 110.115 827.586 128.527C853.206 148.46 878.395 171.419 901.688 196.299C921.84 221.52 937.781 247.387 947.443 272.549C951.038 296.485 945.997 318.426 931.186 337.411C909.509 354.47 878.789 368.55 840.745 379.725C801.227 390.674 760.169 400.656 721.891 410.764C692.307 424.155 672.42 440.047 664.95 458.926C671.653 482.939 689.523 508.311 714.906 533.568C746.056 560.805 776.956 584.981 803.799 604.712C834.057 635.191 771.387 618.966 727.11 600.624C694.553 588.894 662.237 577.491 631.358 567.401C599.502 559.997 569.51 554.97 541.902 552.8C513.363 553.977 486.955 558.181 463.117 565.26C438.226 575.164 417.036 586.607 399.496 598.683C381.236 611.815 366.767 624.267 355.889 635.273C340.076 649.511 319.137 660.399 309.731 654.796C300.325 647.087 289.664 635.065 277.05 618.933C260.618 600.334 242.2 578.115 222.365 553.009C201.002 526.773 180.621 499.026 163.161 470.882C149.102 443.856 141.48 418.024 142.098 394.353C150.053 373.352 166.653 355.833 190.479 341.423C219.19 328.719 252.094 317.853 286.946 308.078C321.877 298.022 355.924 287.763 387.872 276.955C416.678 264.454 442.65 250.92 465.87 236.529C485.675 220.272 503.644 203.467 520.63 186.664C535.343 168.673 550.323 151.331 566.254 135.388C581.06 119.18 597.581 105.104 616.273 93.8771C634.24 83.3924 654.665 76.4839 677.67 73.8667Z" stroke="url(#paint3_linear_2_3)" stroke-width="2.5" stroke-linecap="round"/>
<path opacity="0.64" d="M721.564 102.11C743.729 103.749 766.941 110.22 790.86 121.15C813.961 133.86 837.668 150.877 861.247 171.456C883.456 193.31 904.624 217.89 923.404 244.015C939.015 270.033 950.179 296.084 955.166 320.696C954.492 343.445 945.652 363.353 927.833 379.381C903.911 392.923 871.866 402.737 833.426 409.139C793.921 415.307 753.34 420.508 715.556 426.207C685.834 436.106 665.102 449.462 655.844 466.944C659.505 490.939 673.666 517.388 695.06 544.574C721.904 574.345 749.085 601.29 773.125 623.611C802.053 658.458 748.937 639.738 709.299 618.195C679.6 603.833 649.781 589.663 620.975 576.833C590.776 566.375 561.982 558.334 535.125 553.205C506.974 551.153 480.569 552.193 456.331 556.235C430.811 562.881 408.74 571.385 390.158 580.911C370.739 591.402 355.024 601.638 342.842 610.853C325.122 622.575 301.069 630.109 290.898 623.238C281.496 614.488 271.316 601.419 259.775 584.141C244.928 564.121 228.699 540.386 211.651 513.72C193.386 485.916 176.453 456.715 162.528 427.49C151.871 399.729 147.409 373.821 150.71 350.854C160.767 331.281 178.856 315.968 203.6 304.45C232.968 295.154 266.287 288.119 301.585 282.406C337.116 276.533 372.033 270.426 405.13 263.582C435.554 254.892 463.434 244.899 488.78 233.785C511.052 220.573 531.604 206.572 551.039 192.439C568.374 176.923 585.758 162.012 603.763 148.52C620.612 134.674 638.805 123.014 658.633 114.365C677.695 106.339 698.622 102.019 721.564 102.11Z" stroke="url(#paint4_linear_2_3)" stroke-width="2.5" stroke-linecap="round"/>
<path opacity="0.24" d="M760.56 135.816C782.184 139.994 804.162 148.874 826.192 162.098C847.234 176.907 868.201 195.841 888.422 218.081C907.095 241.323 924.172 266.909 938.479 293.554C949.644 319.695 956.28 345.227 956.944 368.581C952.394 389.584 940.283 406.933 920.062 419.621C894.506 429.446 861.796 434.917 823.608 436.596C784.715 438.161 745.104 438.851 708.301 440.391C678.83 446.915 657.555 457.725 646.721 473.705C647.449 497.29 657.889 524.327 675.222 552.882C697.61 584.6 720.832 613.742 741.803 638.281C768.488 677.43 724.309 658.041 689.469 634.076C662.826 617.629 635.751 601.142 609.278 585.912C581.132 572.732 553.906 561.881 528.165 553.972C500.799 548.82 474.789 546.766 450.569 547.803C424.836 551.183 402.274 556.703 382.952 563.601C362.712 571.321 346.012 579.188 332.746 586.46C313.437 595.386 286.756 598.897 276.07 590.495C266.797 580.599 257.274 566.417 246.962 548.028C233.868 526.705 220.008 501.673 205.849 473.779C190.835 444.73 177.417 414.522 167.083 384.619C159.813 356.57 158.387 330.936 164.216 308.971C176.173 291.036 195.438 278.042 220.777 269.447C250.395 263.559 283.693 260.306 318.904 258.608C354.52 256.907 389.749 254.978 423.43 252.247C454.915 247.533 484.195 241.341 511.163 233.791C535.446 223.936 558.081 213.105 579.585 201.988C599.158 189.304 618.584 177.17 638.293 166.407C656.882 155.177 676.415 146.156 697.065 140.187C716.894 134.727 738.039 133.042 760.56 135.816Z" stroke="url(#paint5_linear_2_3)" stroke-width="2.5" stroke-linecap="round"/>
<path opacity="0.97" d="M793.977 174.134C814.755 180.701 835.211 191.815 855.147 207.016C873.909 223.581 891.954 244.01 908.722 267.361C923.799 291.468 936.805 317.448 946.806 343.963C953.757 369.562 956.178 393.945 952.968 415.483C945.054 434.191 930.246 448.582 908.252 457.677C881.688 463.642 848.925 464.848 811.625 462.01C773.881 459.212 735.765 455.631 700.348 453.316C671.444 456.643 649.922 464.93 637.731 479.284C635.657 502.128 642.473 529.289 655.726 558.649C673.567 591.713 692.664 622.511 710.329 648.818C733.935 692.093 697.8 673.551 667.741 647.976C644.283 629.937 620.146 611.623 596.262 594.372C570.419 578.825 545.087 565.47 520.774 554.997C494.594 546.922 469.369 541.91 445.534 540.003C419.994 540.161 397.299 542.706 377.577 546.922C356.859 551.801 339.477 557.219 325.396 562.38C304.876 568.248 276.212 567.194 265.245 557.022C256.334 545.903 247.634 530.614 238.712 511.144C227.55 488.707 216.179 462.6 205.032 433.774C193.328 403.862 183.445 373.041 176.691 342.937C172.744 314.982 174.246 289.984 182.4 269.276C196.018 253.152 216.173 242.572 241.772 236.883C271.205 234.324 304.063 234.755 338.674 236.981C373.876 239.38 408.871 241.604 442.609 242.981C474.592 242.355 504.658 240.091 532.707 236.312C558.48 230.064 582.719 222.705 605.798 214.873C627.18 205.352 648.232 196.26 669.255 188.463C689.233 180.056 709.74 173.854 730.876 170.647C751.152 167.835 772.188 168.774 793.977 174.134Z" stroke="url(#paint6_linear_2_3)" stroke-width="2.5" stroke-linecap="round"/>
<path opacity="0.57" d="M821.277 216.112C840.9 224.944 859.635 238.015 877.242 254.874C893.574 272.873 908.627 294.337 921.921 318.296C933.45 342.714 942.551 368.525 948.471 394.275C951.483 418.779 950.139 441.453 943.533 460.615C932.799 476.681 915.922 487.809 892.782 493.184C865.838 495.281 833.677 492.308 797.784 485.215C761.695 478.34 725.494 470.888 691.842 465.022C663.851 465.354 642.32 471.221 628.982 483.805C624.305 505.602 627.614 532.455 636.859 562.09C650.153 595.886 665.029 627.818 679.25 655.449C698.94 702.451 669.749 686.035 644.383 659.607C624.105 640.474 603.015 620.777 581.837 601.936C558.536 584.418 535.351 568.893 512.772 556.076C488.143 545.348 464.05 537.548 440.948 532.833C416.014 529.847 393.551 529.48 373.786 530.99C352.924 533.009 335.189 535.883 320.572 538.816C299.263 541.443 269.34 535.4 258.423 523.304C250.077 510.917 242.406 494.49 235.057 474.078C225.966 450.671 217.198 423.771 209.141 394.346C200.762 363.956 194.421 332.973 191.155 303.018C190.394 275.556 194.69 251.519 204.958 232.336C219.966 218.145 240.736 209.995 266.237 207.156C295.139 207.822 327.11 211.808 360.727 217.8C394.971 224.129 429.199 230.441 462.451 235.849C494.326 239.307 524.645 241.049 553.196 241.148C579.88 238.709 605.2 234.989 629.36 230.662C652.045 224.51 674.26 218.678 696.201 214.001C717.161 208.61 738.251 205.324 759.527 204.924C779.904 204.817 800.524 208.346 821.277 216.112Z" stroke="url(#paint7_linear_2_3)" stroke-width="2.5" stroke-linecap="round"/>
<path opacity="0.9" d="M842.04 260.788C860.267 271.707 877.063 286.468 892.24 304.594C906.042 323.66 918.069 345.731 927.951 369.818C936.046 394.03 941.456 419.119 943.628 443.589C943.137 466.479 938.466 486.955 929.047 503.392C916.068 516.477 897.734 524.179 874.149 525.805C847.415 524.109 816.381 517.199 782.413 506.161C748.426 495.587 714.512 484.622 682.941 475.559C656.125 473.111 634.849 476.635 620.596 487.443C613.548 507.893 613.518 534.002 618.854 563.438C627.662 597.386 638.356 629.874 648.992 658.365C664.024 708.549 640.513 695.28 619.62 668.647C602.491 648.917 584.442 628.328 566.085 608.305C545.471 589.206 524.648 571.861 504.037 557.023C481.245 543.892 458.593 533.547 436.587 526.143C412.627 520.222 390.764 517.003 371.27 515.836C350.658 515.052 332.864 515.34 318.038 515.998C296.409 515.242 266.061 503.866 255.572 489.74C248.02 476.091 241.575 458.617 235.953 437.389C229.059 413.208 223.01 385.79 218.034 356.086C212.981 325.598 210.107 294.835 210.211 265.473C212.506 238.827 219.346 216.063 231.504 198.597C247.657 186.459 268.719 180.765 293.848 180.683C321.856 184.432 352.543 191.741 384.72 201.278C417.557 211.362 450.524 221.545 482.729 230.894C513.942 238.344 543.941 244.089 572.43 248.069C599.457 249.519 625.273 249.57 649.981 248.848C673.471 246.227 696.372 243.793 718.773 242.347C740.265 240.092 761.551 239.785 782.602 242.177C802.726 244.755 822.604 250.77 842.04 260.788Z" stroke="url(#paint8_linear_2_3)" stroke-width="2.5" stroke-linecap="round"/>
<path opacity="0.83" d="M856.065 307.114C872.688 319.886 887.398 336.049 900.064 355.107C911.29 374.866 920.317 397.116 926.953 420.85C931.797 444.45 933.815 468.33 932.646 491.011C929.05 511.872 921.616 529.777 909.994 543.216C895.378 553.136 876.227 557.36 852.766 555.29C826.802 549.964 797.429 539.408 765.82 524.844C734.311 510.95 702.983 496.873 673.744 485.019C648.345 480.042 627.548 481.371 612.632 490.32C603.434 509.219 600.297 534.205 601.932 562.957C606.427 596.527 612.954 629.028 619.99 657.909C629.744 710.579 610.557 701.106 593.812 674.894C579.686 655.016 564.653 633.973 549.091 613.184C531.262 592.924 512.946 574.115 494.515 557.58C473.773 542.354 452.902 529.695 432.271 519.835C409.624 511.164 388.714 505.232 369.809 501.468C349.788 497.932 332.336 495.693 317.568 494.009C296.149 489.851 266.246 472.977 256.585 456.783C250.047 441.904 245.042 423.515 241.258 401.616C236.699 376.89 233.386 349.236 231.518 319.631C229.734 289.407 230.191 259.239 233.506 230.825C238.65 205.355 247.849 184.118 261.642 168.542C278.652 158.54 299.733 155.228 324.161 157.804C350.949 164.422 380.031 174.833 410.377 187.659C441.362 201.232 472.583 215.033 503.256 228.111C533.269 239.414 562.364 249.039 590.232 256.851C617.002 262.18 642.756 266.017 667.476 268.918C691.236 269.932 714.321 270.945 736.697 272.757C758.274 273.68 779.382 276.354 799.831 281.488C819.356 286.687 838.195 295.062 856.065 307.114Z" stroke="url(#paint9_linear_2_3)" stroke-width="2.5" stroke-linecap="round"/>
<path opacity="0.43" d="M863.318 354.032C878.136 368.444 890.626 385.698 900.765 405.339C909.415 425.45 915.6 447.457 919.152 470.405C921.013 492.954 920.008 515.221 915.935 535.773C909.751 554.27 900.11 569.357 886.893 579.616C871.247 586.291 851.895 587.043 829.13 581.474C804.475 572.776 777.209 558.93 748.336 541.245C719.57 524.494 691.098 507.738 664.41 493.472C640.63 486.234 620.536 485.492 605.11 492.563C594.053 509.707 588.07 533.214 586.226 560.866C586.61 593.511 589.105 625.54 592.579 654.328C588.438 706.078 549.924 647.979 531.074 616.266C516.034 595.26 500.326 575.376 484.164 557.451C465.721 540.486 446.817 525.803 427.845 513.746C406.86 502.533 387.191 494.086 369.231 487.841C350.137 481.693 333.312 476.944 319.004 472.971C298.246 465.41 269.745 443.079 261.3 424.865C256.016 408.864 252.605 389.654 250.854 367.302C248.689 342.286 248.139 314.711 249.294 285.519C250.684 255.907 254.338 226.714 260.635 199.617C268.422 175.576 279.692 156.086 294.828 142.549C312.423 134.714 333.279 133.755 356.728 138.808C382.016 148.066 409.175 161.321 437.35 177.102C466.115 193.854 495.149 211.004 523.837 227.519C552.131 242.44 579.801 255.744 606.494 267.239C632.447 276.334 657.568 283.9 681.762 290.396C705.216 295.006 727.973 299.475 749.903 304.473C771.128 308.574 791.604 314.174 811.091 321.916C829.713 329.64 847.228 340.193 863.318 354.032Z" stroke="url(#paint10_linear_2_3)" stroke-width="2.5" stroke-linecap="round"/>
<path opacity="0.18" d="M863.892 400.577C876.738 416.343 886.979 434.391 894.589 454.238C900.752 474.353 904.233 495.787 905.02 517.559C904.195 538.732 900.55 559.036 894.09 577.152C885.818 593.063 874.547 605.151 860.349 612.173C844.261 615.627 825.248 613.075 803.739 604.225C780.824 592.484 756.041 575.759 730.202 555.428C704.455 536.267 678.979 517.307 654.981 501.005C632.991 491.806 613.747 489.112 598.096 494.337C585.454 509.537 576.895 531.311 571.852 557.459C568.388 588.723 567.067 619.769 567.098 648.037C557.571 702.748 527.094 648.881 512.259 617.294C499.97 595.936 486.859 575.365 473.116 556.368C457.06 538.04 440.339 521.65 423.268 507.619C404.192 494.188 386.074 483.407 369.332 474.867C351.509 466.252 335.691 459.15 322.108 452.929C302.546 442.11 276.364 414.437 269.531 394.358C265.735 377.363 264.104 357.559 264.446 334.932C264.728 309.905 266.914 282.688 271.022 254.283C275.452 225.619 282.086 197.727 291.152 172.23C301.288 149.914 314.379 132.372 330.57 120.948C348.506 115.273 368.854 116.556 391.071 123.926C414.616 135.573 439.563 151.356 465.276 169.776C491.473 189.342 517.959 209.479 544.261 229.084C570.371 247.337 596.093 264.063 621.138 278.995C645.725 291.691 669.677 302.817 692.811 312.778C715.439 320.894 737.359 328.682 758.364 336.791C778.765 343.977 798.231 352.358 816.46 362.567C833.831 372.656 849.752 385.199 863.892 400.577Z" stroke="url(#paint11_linear_2_3)" stroke-width="2.5" stroke-linecap="round"/>
<path opacity="0.65" d="M858.064 445.732C868.846 462.566 876.8 481.109 881.975 500.873C885.764 520.676 886.73 541.182 885.056 561.491C881.891 580.99 876.057 599.085 867.706 614.563C857.875 627.743 845.557 636.792 830.944 640.602C814.967 640.952 796.858 635.303 777.031 623.537C756.255 609.106 734.254 589.932 711.674 567.48C689.078 546.355 666.759 525.638 645.528 507.723C625.439 496.803 607.223 492.361 591.552 495.741C577.582 508.897 566.792 528.689 558.86 553.026C551.897 582.47 546.997 612.076 543.702 639.388C527.987 696.032 504.023 647.07 492.942 616.101C483.305 594.747 472.78 573.802 461.45 554.118C447.914 534.754 433.499 517.008 418.529 501.301C401.565 485.946 385.294 473.096 370.072 462.437C353.812 451.596 339.261 442.281 326.758 433.954C314.016 424.663 303.708 415.445 295.96 405.708C288.411 393.993 283.46 380.815 281.083 365.652C278.93 347.869 279.199 327.624 281.724 305.017C284.48 280.222 289.355 253.705 296.278 226.37C303.56 198.995 312.953 172.709 324.506 149.082C336.744 128.692 351.336 113.233 368.332 104.022C386.329 100.483 405.914 103.884 426.707 113.355C448.258 127.124 470.773 145.064 493.776 165.775C517.143 187.769 540.775 210.492 564.315 232.822C587.837 254.011 611.183 273.816 634.07 291.919C656.792 307.927 679.056 322.37 700.642 335.562C721.942 347 742.564 357.963 762.217 369.005C781.381 379.083 799.455 390.107 816.092 402.572C831.914 414.816 846.038 429.095 858.064 445.732Z" stroke="url(#paint12_linear_2_3)" stroke-width="2.5" stroke-linecap="round"/>
<path opacity="0.2" d="M846.288 488.622C854.888 506.264 860.576 524.977 863.461 544.327C864.985 563.531 863.745 582.873 859.913 601.443C854.786 619.051 847.227 634.772 837.511 647.508C826.646 657.923 813.813 663.966 799.365 664.718C783.979 662.143 767.215 653.699 749.477 639.383C731.128 622.692 712.137 601.553 692.951 577.45C673.605 554.867 654.471 532.834 636.091 513.666C617.973 501.333 600.946 495.338 585.42 496.941C570.465 507.954 557.787 525.551 547.316 547.775C537.185 575.05 529.021 602.82 522.644 628.772C500.135 686.158 481.158 642.435 473.511 612.521C466.337 591.505 458.332 570.538 449.432 550.456C438.392 530.409 426.389 511.613 413.653 494.55C399.03 477.596 384.793 463.009 371.35 450.45C356.923 437.632 343.96 426.351 332.837 416.091C321.545 404.871 312.566 393.877 306.092 382.557C299.962 369.413 296.489 355.056 295.671 339.079C295.369 320.728 297.65 300.311 302.389 277.97C307.558 253.711 315.016 228.147 324.593 202.188C334.517 176.39 346.416 151.987 360.127 130.453C374.164 112.191 389.958 98.943 407.445 91.9294C425.278 90.485 443.892 95.8468 463.056 107.194C482.467 122.764 502.35 142.567 522.483 165.127C542.769 189.143 563.285 214.025 583.787 238.659C604.372 262.387 624.974 284.875 645.325 305.755C665.702 324.762 685.832 342.229 705.411 358.375C724.916 372.858 743.778 386.747 761.684 400.467C779.196 413.24 795.551 426.644 810.298 441.089C824.309 455.283 836.429 471.053 846.288 488.622Z" stroke="url(#paint13_linear_2_3)" stroke-width="2.5" stroke-linecap="round"/>
<path opacity="0.85" d="M829.066 528.447C835.469 546.603 838.96 565.22 839.698 583.902C839.169 602.262 835.961 620.196 830.392 636.866C823.672 652.409 814.83 665.687 804.265 675.665C792.864 683.34 780.035 686.514 766.23 684.403C751.906 679.196 736.853 668.312 721.516 651.868C705.826 633.352 689.991 610.748 674.264 585.513C658.195 561.904 642.264 539.001 626.684 518.981C610.612 505.492 594.838 498.082 579.697 498.011C564.015 506.835 549.783 522.098 537.153 541.985C524.259 566.792 513.166 592.403 503.979 616.637C494.744 640.53 487.455 660.03 482.016 674.092C470.181 682.643 458.892 634.994 454.334 606.466C449.46 586.055 443.812 565.374 437.278 545.228C428.729 524.829 419.181 505.341 408.808 487.247C396.638 469.048 384.615 452.977 373.133 438.831C360.771 424.317 349.653 411.274 340.185 399.318C330.637 386.411 323.253 373.878 318.291 361.17C313.83 346.824 312.039 331.529 312.981 314.974C314.633 296.273 318.993 275.972 325.944 254.154C333.484 230.726 343.419 206.422 355.427 182.127C367.732 158.142 381.832 135.861 397.422 116.62C412.937 100.598 429.647 89.6032 447.348 84.8193C464.762 85.3378 482.238 92.5311 499.604 105.488C516.73 122.577 533.882 143.838 550.984 167.913C568.067 193.475 585.27 220.058 602.478 246.573C619.863 272.355 637.398 297.109 654.842 320.348C672.518 341.909 690.098 362.023 707.285 380.762C724.56 397.995 741.27 414.475 757.056 430.562C772.579 445.756 786.867 461.26 799.539 477.414C811.485 493.256 821.475 510.2 829.066 528.447Z" stroke="url(#paint14_linear_2_3)" stroke-width="2.5" stroke-linecap="round"/>
<path opacity="0.64" d="M807.083 564.512C811.29 582.892 812.683 601.164 811.47 618.931C809.076 636.261 804.211 652.584 797.241 667.234C784.501 686.098 751.055 704.099 732.16 699.693C719.232 692.159 706.251 679.223 693.519 661.122C680.662 641.263 668.029 617.673 655.754 591.794C642.93 567.599 630.125 544.208 617.297 523.668C603.29 509.295 588.881 500.7 574.259 499.013C558.169 505.657 542.745 518.496 528.321 535.898C513.096 557.98 499.465 581.12 487.76 603.319C476.004 625.419 466.54 643.718 459.381 657.238C445.59 667.167 437.679 624.83 435.793 597.949C433.006 578.38 429.567 558.239 425.315 538.298C419.203 517.892 412.08 498.038 404.133 479.227C394.48 460.116 384.809 442.92 375.514 427.482C365.387 411.576 356.312 397.091 348.714 383.688C341.135 369.397 335.602 355.558 332.395 341.742C329.794 326.432 329.866 310.475 332.702 293.611C336.374 274.861 342.861 254.917 351.954 233.925C361.789 211.578 373.984 188.802 388.192 166.404C402.636 144.482 418.633 124.501 435.737 107.709C452.43 94.0195 469.749 85.33 487.419 82.6882C504.176 85.0945 520.333 93.8836 535.782 108.237C550.537 126.535 564.894 148.897 578.852 174.046C592.628 200.738 606.409 228.574 620.182 256.455C634.181 283.826 648.378 310.342 662.657 335.478C677.306 359.172 692.015 381.483 706.485 402.426C721.154 421.988 735.379 440.695 748.748 458.817C761.951 476.064 773.937 493.348 784.318 510.92C794.041 528.079 801.767 545.937 807.083 564.512Z" stroke="url(#paint15_linear_2_3)" stroke-width="2.5" stroke-linecap="round"/>
<path opacity="0.8" d="M781.077 596.292C783.131 614.616 782.559 632.294 779.586 648.972C775.563 665.078 769.351 679.706 761.376 692.303C747.596 707.812 714.774 718.443 697.74 710.618C686.534 701.134 675.806 686.601 665.85 667.297C655.877 646.556 646.447 622.43 637.571 596.38C627.9 572.041 618.092 548.554 607.949 527.832C595.975 512.833 583 503.218 569.057 500.053C552.823 504.541 536.564 514.916 520.754 529.677C503.636 548.884 487.881 569.345 474.009 589.243C460.04 609.228 448.565 626.062 439.752 638.713C423.693 649.36 417.944 612.08 418.352 587.024C417.389 568.51 415.958 549.128 413.848 529.66C410.065 509.503 405.357 489.61 399.81 470.405C392.726 450.763 385.507 432.748 378.487 416.343C370.732 399.412 363.9 383.792 358.383 369.269C352.939 353.876 349.442 339.043 348.164 324.404C347.614 308.433 349.658 292.111 354.461 275.205C360.211 256.705 368.763 237.399 379.951 217.52C391.896 196.529 406.168 175.53 422.313 155.256C438.584 135.584 456.145 118.036 474.461 103.767C491.98 92.4773 509.636 86.0666 526.995 85.5093C542.919 89.6661 557.621 99.8687 571.047 115.35C583.392 134.523 594.889 157.624 605.738 183.442C616.165 210.826 626.459 239.438 636.708 268.2C647.161 296.672 657.892 324.452 668.827 351.001C680.194 376.341 691.764 400.379 703.242 423.074C715.03 444.5 726.498 465.032 737.209 484.796C747.817 503.732 757.321 522.43 765.255 541.035C772.615 559.209 778.017 577.643 781.077 596.292Z" stroke="url(#paint16_linear_2_3)" stroke-width="2.5" stroke-linecap="round"/>
<path opacity="0.48" d="M751.881 623.363C751.83 641.375 749.426 658.251 744.935 673.663C735.912 694.863 709.387 724.147 693.896 729.667C683.407 730.068 673.123 726.073 663.551 717.362C654.282 706.356 645.967 690.639 638.82 670.624C631.726 649.407 625.454 625.26 619.784 599.437C613.152 575.332 606.207 552.12 598.613 531.495C588.633 516.115 577.13 505.688 564.023 501.137C547.913 503.549 531.146 511.459 514.342 523.545C495.765 539.742 478.316 557.356 462.659 574.738C446.793 592.374 433.575 607.452 423.252 619C404.694 629.643 400.088 596.977 402.382 573.879C402.993 556.499 403.385 538.094 403.252 519.316C401.641 499.704 399.241 480.045 396.107 460.781C391.559 440.932 386.808 422.464 382.177 405.421C376.889 387.801 372.395 371.405 369.09 356.061C365.931 339.922 364.603 324.426 365.392 309.305C366.96 293 371.085 276.622 377.866 259.992C385.69 242.024 396.254 223.67 409.377 205.121C423.261 185.772 439.36 166.742 457.161 148.765C474.951 131.494 493.747 116.495 512.901 104.811C530.974 95.9192 548.657 91.736 565.458 93.1759C580.406 98.9131 593.517 110.327 604.909 126.636C614.784 146.406 623.477 169.882 631.209 195.981C638.323 223.628 645.136 252.541 651.853 281.731C658.725 310.792 665.899 339.322 673.345 366.768C681.289 393.229 689.549 418.502 697.865 442.453C706.554 465.314 715.026 487.199 722.912 508.17C730.765 528.367 737.614 548.107 743.016 567.394C747.921 586.246 750.991 604.919 751.881 623.363Z" stroke="url(#paint17_linear_2_3)" stroke-width="2.5" stroke-linecap="round"/>
<path opacity="0.69" d="M720.282 645.459C718.225 662.926 714.208 678.793 708.424 692.861C697.875 711.764 670.636 735.138 656.076 737.54C646.561 736.022 637.742 730.281 630.074 720.164C622.88 708.008 617.042 691.569 612.695 671.289C608.425 650.065 605.146 626.27 602.523 601.113C598.704 577.578 594.459 554.915 589.241 534.703C581.222 519.161 571.203 508.076 559.018 502.315C543.288 502.741 526.376 508.228 508.947 517.625C489.39 530.756 470.668 545.408 453.584 560.148C436.205 575.264 421.509 588.343 409.868 598.561C388.809 608.487 384.471 579.82 388.249 558.696C390.205 542.574 392.179 525.294 393.858 507.401C394.255 488.534 394.033 469.388 393.238 450.379C391.177 430.639 388.885 412.064 386.66 394.723C383.865 376.794 381.78 359.976 380.773 344.17C379.97 327.65 380.87 311.827 383.804 296.53C387.563 280.254 393.752 264.134 402.517 248.098C412.325 230.975 424.795 213.831 439.673 196.882C455.302 179.352 472.956 162.499 492.103 146.975C511.085 132.188 530.76 119.8 550.447 110.72C568.742 104.188 586.21 102.192 602.235 105.442C616.017 112.62 627.502 124.992 636.798 141.921C644.275 161.956 650.182 185.475 654.88 211.493C658.765 238.963 662.179 267.746 665.409 296.891C668.72 326.03 672.346 354.806 676.299 382.653C680.745 409.694 685.585 435.689 690.624 460.397C696.08 484.201 701.457 506.973 706.392 528.711C711.37 549.745 715.471 570.091 718.314 589.737C720.723 608.873 721.481 627.497 720.282 645.459Z" stroke="url(#paint18_linear_2_3)" stroke-width="2.5" stroke-linecap="round"/>
<path opacity="0.49" d="M687.142 662.478C683.25 679.16 677.754 693.89 670.954 706.528C659.246 723.084 618.51 741.818 597.798 719.302C588.053 692.075 584.603 650.629 585.833 601.502C584.623 578.862 582.845 557.061 579.841 537.434C573.653 521.971 565.125 510.405 553.994 503.577C538.878 502.141 522.1 505.274 504.425 512.06C484.305 522.13 464.758 533.805 446.67 545.781C397.429 578.239 367.373 575.695 376.32 541.823C379.359 527.003 382.713 510.93 386.002 494.079C388.202 476.166 390.026 457.777 391.45 439.286C391.76 419.993 391.852 401.633 392.007 384.356C391.714 366.438 392.023 349.558 393.362 333.668C396.824 300.004 407.815 268.888 427.971 239.629C452.335 207.053 486.259 176.067 526.518 149.797C546.374 137.594 566.603 127.83 586.47 121.302C604.729 117.083 621.699 117.122 636.769 122.086C649.286 130.479 659.058 143.616 666.265 160.875C671.385 180.9 674.631 204.158 676.427 229.703C677.301 284.519 677.039 342.67 677.678 398.517C680.221 451.883 684.367 501.589 688.166 546.297C690.208 567.705 691.546 588.252 691.863 607.871C691.782 626.97 690.294 645.245 687.142 662.478Z" stroke="url(#paint19_linear_2_3)" stroke-width="2.5" stroke-linecap="round"/>
<path opacity="0.5" d="M653.298 674.459C641.393 705.143 625.168 726.8 607.695 737.877C589.83 744.191 574.99 736.903 567.051 715.121C561.614 687.473 563.311 647.314 569.756 600.777C569.946 559.722 564.449 525.057 548.885 504.898C516.119 502.938 477.94 514.586 441.724 531.891C390.023 557.477 356.798 553.971 366.85 523.612C374.266 495.16 382.934 462.104 390.91 427.683C395.169 389.725 399.703 355.181 406.741 324.639C414.872 291.726 430.092 261.789 453.799 234.662C481.555 205.045 518.037 178.278 559.791 157.104C599.773 139.021 637.977 132.594 668.512 142.688C687.978 164.58 695.924 202.453 695.504 250.374C690.408 303.318 683.55 359.735 677.577 414.296C673.301 466.993 670.839 516.422 668.741 560.843C667.068 602.88 662.599 641.289 653.298 674.459Z" stroke="url(#paint20_linear_2_3)" stroke-width="2.5" stroke-linecap="round"/>
<path opacity="0.09" d="M619.496 681.529C604.687 709.875 587.439 728.489 570.694 736.43C554.051 739.909 542.101 730.463 538.205 708.003C536.894 680.642 543.255 642.438 554.32 599.023C558.53 560.391 556.536 527.142 543.559 506.251C512.57 500.473 475.014 506.786 438.545 518.735C399.26 532.579 371.569 541.862 357.859 543.41C348.324 538.487 350.398 524.822 360.034 504.488C368.958 478.614 380.283 448.11 391.863 415.777C400.366 379.74 409.418 346.563 420.836 317.185C433.396 285.704 452.62 257.648 479.579 233.176C510.249 207.001 548.725 184.702 591.33 168.69C631.617 155.621 668.837 153.703 697.022 166.885C713.415 189.991 717.205 227.167 711.822 273.187C701.198 323.603 688.23 377.456 675.997 429.839C665.203 480.927 656.401 529.139 648.591 572.407C641.318 613.55 632.136 650.597 619.496 681.529Z" stroke="url(#paint21_linear_2_3)" stroke-width="2.5" stroke-linecap="round"/>
<path opacity="0.82" d="M586.464 683.983C560.201 717.55 515.977 726.223 511.482 698.344C513.968 671.906 524.506 636.213 539.544 596.349C547.231 560.458 548.401 528.907 537.994 507.556C509.158 498.353 472.905 499.656 436.886 506.433C397.562 514.981 369.188 520.689 354.604 520.748C344.246 515.442 345.934 503.021 356.025 484.912C366.068 461.529 379.577 433.712 394.403 403.843C406.744 370.197 419.994 338.995 435.479 311.44C452.162 282.02 475.025 256.427 504.818 235.108C537.932 212.736 577.801 195.105 620.628 184.226C660.562 176.031 696.312 178.344 721.855 194.211C735.18 218.114 735.03 254.164 725.124 297.736C709.502 345.067 690.953 395.643 672.99 445.105C656.138 493.676 641.354 539.783 628.192 581.106C615.609 620.568 602.042 655.586 586.464 683.983Z" stroke="url(#paint22_linear_2_3)" stroke-width="2.5" stroke-linecap="round"/>
<path opacity="0.21" d="M554.837 682.225C526.332 711.547 486.479 714.113 487.054 686.531C492.957 661.586 507.077 628.889 525.417 592.863C536.065 559.92 540.017 530.29 532.12 508.801C505.785 496.571 471.407 493.292 436.534 495.195C397.891 498.564 369.428 500.647 354.271 498.993C343.293 492.925 344.53 481.452 354.866 465.334C365.676 444.294 380.976 419.262 398.587 392.164C414.31 361.305 431.345 332.607 450.54 307.457C470.919 280.706 496.991 258.12 529.118 240.373C564.103 222.099 604.762 209.207 647.134 203.336C686.2 199.805 720 205.994 742.693 224.106C752.949 248.439 749.166 282.969 735.202 323.696C715.185 367.412 691.692 414.133 668.589 459.978C646.231 505.248 625.971 548.431 607.938 587.122C590.455 624.152 572.903 656.634 554.837 682.225Z" stroke="url(#paint23_linear_2_3)" stroke-width="2.5" stroke-linecap="round"/>
<path opacity="0.22" d="M525.105 676.683C494.956 701.736 459.802 699.422 465.017 673.029C473.918 649.988 490.974 620.602 511.923 588.626C525.009 558.794 531.36 531.245 525.9 509.863C502.32 495.076 470.366 487.671 437.219 485.082C399.966 483.58 371.965 482.039 356.651 478.514C345.269 471.451 346.104 460.588 356.445 446.241C367.818 427.424 384.499 405.166 404.447 381.097C423.041 353.307 443.372 327.59 465.812 305.367C489.395 281.747 518.134 262.619 552.007 248.782C588.288 234.786 629.087 226.689 670.425 225.602C708.087 226.452 739.591 236.105 759.218 256.018C766.526 280.438 759.417 313.075 741.922 350.594C718.124 390.335 690.398 432.703 662.802 474.378C635.636 515.656 610.51 555.234 588.118 590.68C566.283 624.63 545.25 654.075 525.105 676.683Z" stroke="url(#paint24_linear_2_3)" stroke-width="2.5" stroke-linecap="round"/>
<path opacity="0.49" d="M497.715 667.892C466.477 688.684 436.148 682.669 445.442 658.175C456.803 637.423 476.183 611.58 499.059 583.705C514.061 557.05 522.481 531.699 519.35 510.682C498.699 493.795 469.554 482.828 438.676 476.157C403.445 470.147 376.493 465.112 361.372 459.654C349.914 451.409 350.425 440.883 360.721 428.13C372.367 411.311 390.086 391.827 411.893 370.957C432.867 346.471 455.937 324.1 481.06 305.22C507.289 285.152 538.11 269.824 573.125 260.092C610.069 250.503 650.415 247.069 690.146 250.509C725.92 255.395 754.782 268.094 771.297 289.385C775.743 313.512 765.671 343.994 745.159 378.037C718.255 413.502 687.008 451.13 655.697 488.195C624.433 524.971 595.173 560.348 569.041 592.046C543.439 622.37 519.483 648.42 497.715 667.892Z" stroke="url(#paint25_linear_2_3)" stroke-width="2.5" stroke-linecap="round"/>
<path opacity="0.11" d="M472.97 656.437C441.178 673.02 415.571 664.414 428.261 642.362C441.603 624.13 462.636 601.94 486.834 578.135C503.256 554.673 513.359 531.609 512.418 511.15C494.852 492.656 468.861 478.637 440.688 468.428C408.023 458.36 382.637 450.091 368.113 442.705C356.94 433.16 357.246 422.794 367.398 411.391C379.195 396.42 397.598 379.635 420.8 362.04C443.605 341.048 468.823 322.289 496.063 307.076C524.294 290.841 556.549 279.573 592.104 274.058C629.058 268.878 668.348 269.926 705.955 277.514C739.461 286.057 765.42 301.349 778.775 323.552C780.509 347.112 767.863 375.162 744.866 405.555C715.506 436.556 681.514 469.208 647.259 501.347C612.741 533.177 580.068 563.93 550.914 591.464C522.231 617.786 495.894 640.143 472.97 656.437Z" stroke="url(#paint26_linear_2_3)" stroke-width="2.5" stroke-linecap="round"/>
<path opacity="0.62" d="M451.058 642.848C408.623 650.25 439.29 601.11 475.223 572.018C492.615 551.655 504.068 530.865 505.17 511.223C490.725 491.58 468.135 475.11 443.048 461.88C413.415 448.29 390.038 437.108 376.515 427.905C365.94 417.038 366.233 406.643 376.2 396.45C388.035 383.13 406.8 368.955 430.92 354.69C455.04 337.253 481.838 322.29 510.503 310.95C540.113 298.71 573.165 291.645 608.58 290.34C644.963 289.463 682.628 294.75 717.683 306.09C748.53 317.835 771.413 335.25 781.605 357.93C780.84 380.61 766.013 406.08 741.083 432.675C709.965 459.135 673.988 486.675 637.538 513.698C600.57 540.36 565.335 566.19 533.835 589.298C502.785 611.28 474.683 629.775 451.058 642.848Z" stroke="url(#paint27_linear_2_3)" stroke-width="2.5" stroke-linecap="round"/>
<path opacity="0.54" d="M432.048 627.713C392.038 630.852 427.847 588.847 464.188 565.345C482.12 547.982 494.615 529.462 497.591 510.781C486.284 490.454 467.204 472.095 445.45 456.458C419.226 439.915 398.288 426.209 386.1 415.36C376.461 403.247 376.938 392.769 386.731 383.606C398.531 371.801 417.432 360.102 442.001 349.132C466.916 335.213 494.669 324.14 524.14 316.779C554.451 308.633 587.614 305.736 622.26 308.562C657.493 311.797 693.03 320.957 725.141 335.584C753.054 350.082 772.732 369.146 779.883 391.887C776.798 413.432 760.182 436.205 733.851 458.952C701.61 480.895 664.398 503.321 626.577 525.133C588.014 546.518 551.002 567.224 517.914 585.76C485.219 603.255 455.975 617.779 432.048 627.713Z" stroke="url(#paint28_linear_2_3)" stroke-width="2.5" stroke-linecap="round"/>
<path opacity="0.68" d="M415.91 611.568C378.492 611.001 417.76 576.443 453.751 558.15C471.834 543.613 485.103 527.335 489.75 509.776C481.519 489.187 466.035 469.539 447.773 452.054C425.187 433.197 407.011 417.397 396.454 405.16C388.073 391.936 388.941 381.343 398.61 373.136C410.313 362.684 429.087 353.328 453.686 345.539C478.93 335.128 507.029 327.89 536.648 324.481C567.034 320.376 599.652 321.586 632.949 328.321C666.473 335.364 699.411 348.004 728.282 365.413C753.073 382.18 769.513 402.379 773.696 424.828C768.536 445.041 750.548 465.034 723.329 483.972C690.581 501.461 652.838 518.853 614.404 535.55C575.051 551.636 537.111 567.224 503.145 581.164C469.528 594.123 439.767 604.666 415.91 611.568Z" stroke="url(#paint29_linear_2_3)" stroke-width="2.5" stroke-linecap="round"/>
<path opacity="0.31" d="M402.559 594.938C367.786 591.141 408.879 563.956 443.89 550.456C461.817 538.568 475.572 524.395 481.732 508.129C476.419 487.662 464.504 467.307 449.798 448.57C431.043 428 415.837 410.637 407.19 397.29C400.309 383.172 401.767 372.521 411.314 365.173C422.917 355.988 441.377 348.819 465.608 344.086C490.713 337.013 518.589 333.512 547.739 333.945C577.575 333.742 609.011 338.815 640.403 349.139C671.755 359.64 701.756 375.301 727.142 394.956C748.679 413.474 761.874 434.391 763.307 456.175C756.333 474.875 737.315 492.064 709.715 507.304C677.011 520.518 639.449 533.065 601.113 544.78C561.759 555.741 523.646 566.316 489.48 575.717C455.673 584.196 425.937 590.9 402.559 594.938Z" stroke="url(#paint30_linear_2_3)" stroke-width="2.5" stroke-linecap="round"/>
<path opacity="0.29" d="M391.772 578.197C359.705 571.66 401.137 551.478 434.631 542.29C452.136 532.802 466.104 520.682 473.577 505.753C471.026 485.815 462.57 465.252 451.415 445.853C436.541 424.233 424.448 405.797 417.852 391.708C413.803 371.647 444.875 349.233 477.344 344.792C501.872 340.871 528.99 340.92 557.107 344.944C585.819 348.386 615.538 357.042 644.574 370.567C673.328 384.101 700.062 402.261 721.869 423.612C740.047 443.416 750.082 464.595 748.978 485.392C740.415 502.443 720.768 516.847 693.247 528.531C661.132 537.731 624.35 545.696 586.735 552.713C548.105 558.793 510.562 564.562 476.895 569.634C443.541 573.831 414.375 576.859 391.772 578.197Z" stroke="url(#paint31_linear_2_3)" stroke-width="2.5" stroke-linecap="round"/>
<path opacity="0.11" d="M383.315 561.739C353.91 552.848 394.425 539.073 425.962 533.666C442.803 526.322 456.831 516.131 465.39 502.667C465.396 483.577 460.215 463.284 452.511 443.756C441.441 421.69 432.536 402.718 428.09 388.267C426.335 367.966 457.404 348.489 488.482 347.628C512.09 346.619 537.971 349.934 564.501 357.258C591.584 364.028 619.109 375.858 645.352 392.094C671.175 408.19 694.472 428.333 712.616 450.823C727.459 471.411 734.46 492.417 731.056 511.965C721.204 527.272 701.282 538.972 674.251 547.315C643.163 552.776 607.697 556.541 571.431 559.188C534.16 560.743 497.842 562.037 465.223 563.07C432.93 563.24 404.827 562.853 383.315 561.739Z" stroke="url(#paint32_linear_2_3)" stroke-width="2.5" stroke-linecap="round"/>
<path opacity="0.8" d="M376.861 545.852C350.097 534.937 388.642 526.806 417.913 524.58C433.934 519.138 447.797 510.739 457.243 498.781C459.554 480.835 457.442 461.264 452.956 442.108C445.606 420.169 439.794 401.193 437.538 386.73C438.208 366.644 469.213 350.1 498.596 352.433C520.94 354.087 545.17 360.32 569.685 370.553C594.716 380.277 619.638 394.786 642.783 413.267C665.452 431.407 685.19 452.934 699.669 476.038C711.271 496.935 715.428 517.429 709.996 535.488C699.119 548.976 679.218 558.096 653.051 563.308C623.386 565.408 589.715 565.351 555.299 564.082C519.942 561.554 485.425 558.76 454.401 556.108C423.689 552.631 397.064 549.147 376.861 545.852Z" stroke="url(#paint33_linear_2_3)" stroke-width="2.5" stroke-linecap="round"/>
<path opacity="0.1" d="M372.123 530.703C347.947 518.094 383.684 514.661 410.507 515.091C425.579 511.296 439.129 504.544 449.254 494.095C453.587 477.54 454.22 459.095 452.763 440.765C448.846 419.498 446.027 400.968 445.895 386.894C449.008 367.439 479.899 353.854 507.284 359.043C528.13 363.04 550.349 371.804 572.487 384.481C595.099 396.679 617.119 413.395 636.97 433.55C656.326 453.182 672.45 475.584 683.411 498.775C691.879 519.554 693.409 539.176 686.247 555.553C674.623 567.2 655.042 573.888 630.047 576.28C602.139 575.389 570.628 571.989 538.487 567.234C505.527 561.118 473.274 554.736 444.255 548.83C415.609 542.139 390.816 535.926 372.123 530.703Z" stroke="url(#paint34_linear_2_3)" stroke-width="2.5" stroke-linecap="round"/>
<path opacity="0.18" d="M368.757 516.417C363.316 502.515 424.345 500.166 441.517 488.644C447.574 473.645 450.631 456.614 451.848 439.523C451.101 419.378 451.06 401.765 452.916 388.433C458.372 370.065 489.041 359.491 514.21 367.149C533.318 373.148 553.291 384.001 572.787 398.659C592.722 412.851 611.624 431.233 628.064 452.487C644.038 473.077 656.629 495.793 664.221 518.612C669.761 538.864 668.926 557.298 660.355 571.897C648.211 581.695 629.246 586.137 605.675 586.013C579.781 582.542 550.746 576.247 521.177 568.555C490.956 559.385 461.365 549.969 434.711 541.257C408.469 531.817 385.761 523.281 368.757 516.417Z" stroke="url(#paint35_linear_2_3)" stroke-width="2.5" stroke-linecap="round"/>
<path opacity="0.25" d="M366.424 503.031C361.669 489.304 416.943 491.712 434.115 482.396C441.583 469.095 446.711 453.767 450.253 438.212C453.536 411.453 466.004 374.143 478.744 367.905C489.474 365.295 503.103 367.975 519.089 376.36C536.284 384.047 553.819 396.553 570.502 412.668C587.612 428.355 603.285 447.807 616.318 469.614C628.951 490.64 638.135 513.163 642.601 535.162C645.427 554.549 642.528 571.577 632.848 584.285C620.445 592.277 602.301 594.647 580.369 592.344C556.683 586.689 530.327 578.03 503.571 567.912C476.351 556.27 449.679 544.363 425.682 533.354C402.048 521.668 381.673 511.218 366.424 503.031Z" stroke="url(#paint36_linear_2_3)" stroke-width="2.5" stroke-linecap="round"/>
<path opacity="0.69" d="M364.898 490.519C341.034 468.712 389.492 479.763 427.168 475.42C441.989 447.121 452.115 415.21 462.265 394.316C474.378 370.762 494.834 366.716 521.676 386.282C553.147 403.852 582.454 440.267 602.016 484.537C620.326 525.279 623.458 566.737 604.323 592.536C577.516 600.546 533.075 587.616 485.924 565.22C437.585 536.892 392.558 508.629 364.898 490.519Z" stroke="url(#paint37_linear_2_3)" stroke-width="2.5" stroke-linecap="round"/>
<path opacity="0.69" d="M363.9 478.771C343.576 455.991 385.537 468.982 420.741 467.72C437.933 443.478 451.738 415.765 464.405 397.904C478.927 377.374 498.847 375.426 521.854 396.417C549.157 416.145 572.335 453.479 585.554 496.847C597.94 536.495 596.128 574.922 575.362 596.64C549.616 601.647 509.797 585.689 468.469 560.46C426.637 529.463 387.779 498.515 363.9 478.771Z" stroke="url(#paint38_linear_2_3)" stroke-width="2.5" stroke-linecap="round"/>
<path opacity="0.57" d="M363.226 467.666C346.382 444.316 382.319 458.039 414.928 459.372C433.768 439.235 450.329 416.026 464.874 401.467C481.215 384.26 500.367 384.425 519.623 406.298C542.73 427.47 559.992 464.728 567.314 506.253C574.29 544 568.27 578.921 546.57 596.57C522.144 598.889 487.016 580.682 451.465 553.594C416.087 521.015 383.367 488.47 363.226 467.666Z" stroke="url(#paint39_linear_2_3)" stroke-width="2.5" stroke-linecap="round"/>
<path opacity="0.43" d="M362.786 457.034C349.29 433.501 379.821 446.914 409.778 450.466C429.552 434.349 447.987 415.74 463.725 404.636C481.253 390.972 499.412 393.182 514.994 415.376C534.012 437.37 545.725 473.628 547.809 512.497C549.995 547.71 540.534 578.755 518.502 592.479C495.645 592.413 465.129 572.689 435.208 544.614C406.009 511.515 379.24 478.343 362.786 457.034Z" stroke="url(#paint40_linear_2_3)" stroke-width="2.5" stroke-linecap="round"/>
<path opacity="0.55" d="M362.489 446.685C352.218 423.346 378.115 435.718 405.393 441.025C425.442 428.805 444.855 414.745 461.101 407.082C479.175 397.046 496.063 401.185 508.169 423.189C523.261 445.389 529.932 479.832 527.499 515.414C525.604 547.555 513.487 574.504 491.717 584.527C470.609 582.419 444.56 561.835 419.969 533.605C396.588 500.87 375.446 467.995 362.489 446.685Z" stroke="url(#paint41_linear_2_3)" stroke-width="2.5" stroke-linecap="round"/>
<path opacity="0.68" d="M362.331 436.421C355.08 413.666 377.148 424.434 401.776 431.176C421.503 422.568 441.085 412.838 457.206 408.484C475.19 401.99 490.556 407.876 499.44 429.273C510.825 451.135 513.114 483.113 506.96 514.905C501.723 543.569 487.741 566.372 466.727 572.948C447.538 569.176 425.713 548.352 406.078 520.672C387.975 489.104 371.994 457.293 362.331 436.421Z" stroke="url(#paint42_linear_2_3)" stroke-width="2.5" stroke-linecap="round"/>
<path opacity="0.76" d="M362.345 426.095C357.918 404.243 376.973 413.165 399.017 420.963C417.895 415.646 436.917 409.926 452.317 408.618C469.567 405.444 483.185 412.833 489.125 433.236C497.156 454.266 495.737 483.246 486.74 510.945C478.912 535.916 463.835 554.583 444.034 558.12C426.805 552.986 408.917 532.482 393.79 505.97C380.392 476.194 369.035 446.113 362.345 426.095Z" stroke="url(#paint43_linear_2_3)" stroke-width="2.5" stroke-linecap="round"/>
<path opacity="0.15" d="M362.675 415.583C360.794 394.948 377.597 401.951 397.097 410.485C414.699 408.08 432.504 405.885 446.711 407.26C462.686 407.094 474.348 415.677 477.692 434.738C482.709 454.521 478.362 480.164 467.381 503.631C457.742 524.786 442.247 539.518 424.034 540.385C408.821 534.24 394.536 514.527 383.367 489.69C374.025 462.21 366.669 434.385 362.675 415.583Z" stroke="url(#paint44_linear_2_3)" stroke-width="2.5" stroke-linecap="round"/>
<path opacity="0.78" d="M363.446 404.781C371.404 388.253 420.055 400.286 440.692 404.277C454.954 406.665 464.549 416.102 465.649 433.546C468.074 451.756 461.537 473.833 449.423 493.105C431.052 516.014 388.35 504.116 375.052 472.069C369.123 447.238 365.13 422.069 363.446 404.781Z" stroke="url(#paint45_linear_2_3)" stroke-width="2.5" stroke-linecap="round"/>
<path opacity="0.47" d="M364.823 393.628C368.032 364.601 378.149 371.095 395.871 389.113C427.262 388.696 456.099 399.056 453.583 429.525C454.916 462.888 424.966 500.255 393.458 498.117C374.227 479.451 365.138 425.308 364.823 393.628Z" stroke="url(#paint46_linear_2_3)" stroke-width="2.5" stroke-linecap="round"/>
<path opacity="0.42" d="M367.016 382.188C372.516 356.784 381.93 361.428 396.541 378.368C423.565 382.086 447.097 396.029 442.03 422.646C439.698 451.905 410.345 480.263 383.408 474.553C367.726 456.912 364.069 410.001 367.016 382.188Z" stroke="url(#paint47_linear_2_3)" stroke-width="2.5" stroke-linecap="round"/>
<path opacity="0.57" d="M370.224 370.492C381.797 350.471 429.442 382.364 431.6 413.009C412.899 448.058 364.705 414.04 370.224 370.492Z" stroke="url(#paint48_linear_2_3)" stroke-width="2.5" stroke-linecap="round"/>
<path opacity="0.33" d="M374.583 358.683C404.824 392.95 366.248 394.489 374.583 358.683Z" stroke="url(#paint49_linear_2_3)" stroke-width="2.5" stroke-linecap="round"/>
<path opacity="0.8" d="M380.294 346.966C402.637 377.566 370.534 375.259 380.294 346.966Z" stroke="url(#paint50_linear_2_3)" stroke-width="2.5" stroke-linecap="round"/>
<path opacity="0.19" d="M387.424 335.574C402.887 361.48 377.582 356.755 387.424 335.574Z" stroke="url(#paint51_linear_2_3)" stroke-width="2.5" stroke-linecap="round"/>
<path opacity="0.65" d="M396.017 324.751C405.739 345.085 387.291 339.445 396.017 324.751Z" stroke="url(#paint52_linear_2_3)" stroke-width="2.5" stroke-linecap="round"/>
<path opacity="0.9" d="M406.107 314.827C411.284 328.878 399.472 323.758 406.107 314.827Z" stroke="url(#paint53_linear_2_3)" stroke-width="2.5" stroke-linecap="round"/>
<path d="M254.691 453.844C254.691 450.003 254.171 446.585 253.129 443.59C252.087 440.53 250.362 437.796 247.953 435.387C245.544 432.978 242.257 430.732 238.09 428.648C233.988 426.5 228.91 424.384 222.855 422.301C216.866 420.283 211.462 418.069 206.645 415.66C201.892 413.251 197.79 410.484 194.34 407.359C190.954 404.234 188.35 400.589 186.527 396.422C184.77 392.255 183.891 387.372 183.891 381.773C183.891 376.24 184.867 371.227 186.82 366.734C188.839 362.177 191.638 358.271 195.219 355.016C198.799 351.76 203.031 349.254 207.914 347.496C212.797 345.738 218.201 344.859 224.125 344.859C232.589 344.859 239.88 346.78 246 350.621C252.185 354.397 256.938 359.508 260.258 365.953C263.578 372.333 265.238 379.462 265.238 387.34H254.105C254.105 381.155 252.934 375.654 250.59 370.836C248.311 366.018 244.926 362.242 240.434 359.508C236.007 356.708 230.603 355.309 224.223 355.309C217.842 355.309 212.471 356.513 208.109 358.922C203.812 361.266 200.59 364.423 198.441 368.395C196.293 372.301 195.219 376.63 195.219 381.383C195.219 384.768 195.74 387.893 196.781 390.758C197.823 393.622 199.548 396.259 201.957 398.668C204.431 401.077 207.686 403.355 211.723 405.504C215.759 407.587 220.642 409.54 226.371 411.363C232.816 413.447 238.48 415.758 243.363 418.297C248.311 420.771 252.445 423.701 255.766 427.086C259.151 430.406 261.69 434.247 263.383 438.609C265.141 442.971 266.02 447.984 266.02 453.648C266.02 459.508 265.01 464.749 262.992 469.371C260.974 473.928 258.109 477.835 254.398 481.09C250.688 484.28 246.326 486.721 241.312 488.414C236.299 490.107 230.766 490.953 224.711 490.953C219.438 490.953 214.132 490.139 208.793 488.512C203.52 486.884 198.702 484.345 194.34 480.895C190.043 477.444 186.592 473.017 183.988 467.613C181.384 462.21 180.082 455.764 180.082 448.277H191.312C191.312 454.202 192.289 459.247 194.242 463.414C196.26 467.516 198.865 470.836 202.055 473.375C205.245 475.849 208.826 477.672 212.797 478.844C216.768 479.951 220.772 480.504 224.809 480.504C230.928 480.504 236.202 479.397 240.629 477.184C245.121 474.97 248.572 471.878 250.98 467.906C253.454 463.87 254.691 459.182 254.691 453.844ZM332.719 431.188H299.027V420.641H332.719C339.685 420.641 345.316 419.273 349.613 416.539C353.91 413.74 357.035 409.996 358.988 405.309C361.007 400.556 362.016 395.25 362.016 389.391C362.016 383.661 361.007 378.355 358.988 373.473C357.035 368.59 353.91 364.684 349.613 361.754C345.316 358.759 339.685 357.262 332.719 357.262H302.641V489H291.41V346.812H332.719C341.508 346.812 348.897 348.603 354.887 352.184C360.941 355.764 365.499 360.745 368.559 367.125C371.684 373.505 373.246 380.895 373.246 389.293C373.246 398.017 371.684 405.536 368.559 411.852C365.499 418.102 360.941 422.887 354.887 426.207C348.897 429.527 341.508 431.188 332.719 431.188ZM473.734 478.551V489H407.328V478.551H473.734ZM410.453 346.812V489H399.223V346.812H410.453ZM465.434 410.387V420.934H407.328V410.387H465.434ZM473.246 346.812V357.262H407.328V346.812H473.246ZM572.758 444.566H583.988C583.337 455.178 581.221 463.935 577.641 470.836C574.06 477.672 569.079 482.75 562.699 486.07C556.384 489.391 548.734 491.051 539.75 491.051C532.914 491.051 526.762 489.716 521.293 487.047C515.824 484.378 511.137 480.504 507.23 475.426C503.389 470.348 500.427 464.228 498.344 457.066C496.326 449.84 495.316 441.702 495.316 432.652V402.184C495.316 393.264 496.326 385.289 498.344 378.258C500.427 371.161 503.422 365.139 507.328 360.191C511.299 355.178 516.052 351.37 521.586 348.766C527.185 346.161 533.533 344.859 540.629 344.859C549.223 344.859 556.612 346.487 562.797 349.742C569.047 352.997 573.962 358.043 577.543 364.879C581.189 371.715 583.337 380.536 583.988 391.344H572.758C572.172 382.62 570.609 375.621 568.07 370.348C565.531 365.074 561.983 361.266 557.426 358.922C552.934 356.513 547.335 355.309 540.629 355.309C535.095 355.309 530.212 356.383 525.98 358.531C521.814 360.615 518.266 363.674 515.336 367.711C512.471 371.682 510.29 376.565 508.793 382.359C507.296 388.089 506.547 394.632 506.547 401.988V432.652C506.547 439.879 507.263 446.454 508.695 452.379C510.128 458.238 512.211 463.284 514.945 467.516C517.745 471.747 521.195 475.003 525.297 477.281C529.464 479.495 534.281 480.602 539.75 480.602C546.781 480.602 552.608 479.495 557.23 477.281C561.853 475.068 565.434 471.357 567.973 466.148C570.512 460.875 572.107 453.681 572.758 444.566ZM649.809 346.812V489H638.676V346.812H649.809ZM690.238 346.812V357.262H598.344V346.812H690.238ZM713.09 346.812H752.055C760.453 346.812 767.68 348.44 773.734 351.695C779.854 354.885 784.542 359.605 787.797 365.855C791.117 372.04 792.777 379.658 792.777 388.707C792.777 395.413 791.605 401.5 789.262 406.969C786.918 412.438 783.663 416.995 779.496 420.641C775.395 424.286 770.577 426.793 765.043 428.16L761.332 429.82H720.707L720.512 419.371H753.91C760.095 419.371 765.238 417.939 769.34 415.074C773.441 412.145 776.501 408.368 778.52 403.746C780.603 399.059 781.645 394.046 781.645 388.707C781.645 382.262 780.505 376.695 778.227 372.008C776.013 367.32 772.693 363.707 768.266 361.168C763.904 358.564 758.5 357.262 752.055 357.262H724.32V489H713.09V346.812ZM786.039 489L755.473 425.328L767.387 425.23L797.953 487.73V489H786.039ZM897.758 478.551V489H831.352V478.551H897.758ZM834.477 346.812V489H823.246V346.812H834.477ZM889.457 410.387V420.934H831.352V410.387H889.457ZM897.27 346.812V357.262H831.352V346.812H897.27Z" fill="white"/>
<defs>
<linearGradient id="paint0_linear_2_3" x1="38411.7" y1="14.3325" x2="38411.7" y2="71046.9" gradientUnits="userSpaceOnUse">
<stop stop-color="#29FFBF"/>
<stop offset="1" stop-color="#8730DF"/>
</linearGradient>
<linearGradient id="paint1_linear_2_3" x1="37553" y1="4344.05" x2="29448.8" y2="73680.3" gradientUnits="userSpaceOnUse">
<stop stop-color="#29FFBF"/>
<stop offset="1" stop-color="#8730DF"/>
</linearGradient>
<linearGradient id="paint2_linear_2_3" x1="36213.8" y1="8470.93" x2="20397.6" y2="75204.3" gradientUnits="userSpaceOnUse">
<stop stop-color="#29FFBF"/>
<stop offset="1" stop-color="#8730DF"/>
</linearGradient>
<linearGradient id="paint3_linear_2_3" x1="34430.5" y1="12343.9" x2="10969.2" y2="76803.5" gradientUnits="userSpaceOnUse">
<stop stop-color="#29FFBF"/>
<stop offset="1" stop-color="#8730DF"/>
</linearGradient>
<linearGradient id="paint4_linear_2_3" x1="32240.1" y1="15915.5" x2="2028.53" y2="76071.6" gradientUnits="userSpaceOnUse">
<stop stop-color="#29FFBF"/>
<stop offset="1" stop-color="#8730DF"/>
</linearGradient>
<linearGradient id="paint5_linear_2_3" x1="29689.1" y1="19145.5" x2="-6593.42" y2="74310.3" gradientUnits="userSpaceOnUse">
<stop stop-color="#29FFBF"/>
<stop offset="1" stop-color="#8730DF"/>
</linearGradient>
<linearGradient id="paint6_linear_2_3" x1="26825.2" y1="21998.5" x2="-14784" y2="71586.5" gradientUnits="userSpaceOnUse">
<stop stop-color="#29FFBF"/>
<stop offset="1" stop-color="#8730DF"/>
</linearGradient>
<linearGradient id="paint7_linear_2_3" x1="23698.5" y1="24444" x2="-22440.7" y2="67974.1" gradientUnits="userSpaceOnUse">
<stop stop-color="#29FFBF"/>
<stop offset="1" stop-color="#8730DF"/>
</linearGradient>
<linearGradient id="paint8_linear_2_3" x1="20365.1" y1="26461.2" x2="-29466.5" y2="63559.6" gradientUnits="userSpaceOnUse">
<stop stop-color="#29FFBF"/>
<stop offset="1" stop-color="#8730DF"/>
</linearGradient>
<linearGradient id="paint9_linear_2_3" x1="16880.3" y1="28033.8" x2="-35783.3" y2="58439.1" gradientUnits="userSpaceOnUse">
<stop stop-color="#29FFBF"/>
<stop offset="1" stop-color="#8730DF"/>
</linearGradient>
<linearGradient id="paint10_linear_2_3" x1="13302.1" y1="29155" x2="-41322.5" y2="52717.8" gradientUnits="userSpaceOnUse">
<stop stop-color="#29FFBF"/>
<stop offset="1" stop-color="#8730DF"/>
</linearGradient>
<linearGradient id="paint11_linear_2_3" x1="9683.93" y1="29812.7" x2="-46035.6" y2="46494" gradientUnits="userSpaceOnUse">
<stop stop-color="#29FFBF"/>
<stop offset="1" stop-color="#8730DF"/>
</linearGradient>
<linearGradient id="paint12_linear_2_3" x1="6084.26" y1="30004.4" x2="-49885" y2="39873.3" gradientUnits="userSpaceOnUse">
<stop stop-color="#29FFBF"/>
<stop offset="1" stop-color="#8730DF"/>
</linearGradient>
<linearGradient id="paint13_linear_2_3" x1="2564.43" y1="29748" x2="-52836" y2="32974.7" gradientUnits="userSpaceOnUse">
<stop stop-color="#29FFBF"/>
<stop offset="1" stop-color="#8730DF"/>
</linearGradient>
<linearGradient id="paint14_linear_2_3" x1="-840.493" y1="29433.1" x2="-54903.3" y2="26284.3" gradientUnits="userSpaceOnUse">
<stop stop-color="#29FFBF"/>
<stop offset="1" stop-color="#8730DF"/>
</linearGradient>
<linearGradient id="paint15_linear_2_3" x1="-4081.13" y1="28367" x2="-56089.6" y2="19196.5" gradientUnits="userSpaceOnUse">
<stop stop-color="#29FFBF"/>
<stop offset="1" stop-color="#8730DF"/>
</linearGradient>
<linearGradient id="paint16_linear_2_3" x1="-7097.04" y1="26959.3" x2="-56398.8" y2="12199.4" gradientUnits="userSpaceOnUse">
<stop stop-color="#29FFBF"/>
<stop offset="1" stop-color="#8730DF"/>
</linearGradient>
<linearGradient id="paint17_linear_2_3" x1="-9854.81" y1="25246.6" x2="-55847.9" y2="5407.17" gradientUnits="userSpaceOnUse">
<stop stop-color="#29FFBF"/>
<stop offset="1" stop-color="#8730DF"/>
</linearGradient>
<linearGradient id="paint18_linear_2_3" x1="-12326.8" y1="23270.6" x2="-54529.4" y2="-1095.05" gradientUnits="userSpaceOnUse">
<stop stop-color="#29FFBF"/>
<stop offset="1" stop-color="#8730DF"/>
</linearGradient>
<linearGradient id="paint19_linear_2_3" x1="-14259.3" y1="20761.3" x2="-52257.8" y2="-7527.46" gradientUnits="userSpaceOnUse">
<stop stop-color="#29FFBF"/>
<stop offset="1" stop-color="#8730DF"/>
</linearGradient>
<linearGradient id="paint20_linear_2_3" x1="-16128.4" y1="18480.6" x2="-49560.7" y2="-13061.2" gradientUnits="userSpaceOnUse">
<stop stop-color="#29FFBF"/>
<stop offset="1" stop-color="#8730DF"/>
</linearGradient>
<linearGradient id="paint21_linear_2_3" x1="-18329.4" y1="16598.2" x2="-47007.7" y2="-17579.3" gradientUnits="userSpaceOnUse">
<stop stop-color="#29FFBF"/>
<stop offset="1" stop-color="#8730DF"/>
</linearGradient>
<linearGradient id="paint22_linear_2_3" x1="-19480.4" y1="13887.9" x2="-42819.4" y2="-21597.3" gradientUnits="userSpaceOnUse">
<stop stop-color="#29FFBF"/>
<stop offset="1" stop-color="#8730DF"/>
</linearGradient>
<linearGradient id="paint23_linear_2_3" x1="-20259.7" y1="11141.2" x2="-38722" y2="-25620.3" gradientUnits="userSpaceOnUse">
<stop stop-color="#29FFBF"/>
<stop offset="1" stop-color="#8730DF"/>
</linearGradient>
<linearGradient id="paint24_linear_2_3" x1="-20674" y1="8397.92" x2="-34287.7" y2="-29005.5" gradientUnits="userSpaceOnUse">
<stop stop-color="#29FFBF"/>
<stop offset="1" stop-color="#8730DF"/>
</linearGradient>
<linearGradient id="paint25_linear_2_3" x1="-20736.1" y1="5705.77" x2="-29608.4" y2="-31729.4" gradientUnits="userSpaceOnUse">
<stop stop-color="#29FFBF"/>
<stop offset="1" stop-color="#8730DF"/>
</linearGradient>
<linearGradient id="paint26_linear_2_3" x1="-20459.8" y1="3108.52" x2="-24771.6" y2="-33781.4" gradientUnits="userSpaceOnUse">
<stop stop-color="#29FFBF"/>
<stop offset="1" stop-color="#8730DF"/>
</linearGradient>
<linearGradient id="paint27_linear_2_3" x1="-19865.9" y1="643.597" x2="-19865.9" y2="-34691.5" gradientUnits="userSpaceOnUse">
<stop stop-color="#29FFBF"/>
<stop offset="1" stop-color="#8730DF"/>
</linearGradient>
<linearGradient id="paint28_linear_2_3" x1="-18985.8" y1="-1641.03" x2="-15038.1" y2="-35415.7" gradientUnits="userSpaceOnUse">
<stop stop-color="#29FFBF"/>
<stop offset="1" stop-color="#8730DF"/>
</linearGradient>
<linearGradient id="paint29_linear_2_3" x1="-17848.9" y1="-3716.23" x2="-10313" y2="-35512.4" gradientUnits="userSpaceOnUse">
<stop stop-color="#29FFBF"/>
<stop offset="1" stop-color="#8730DF"/>
</linearGradient>
<linearGradient id="paint30_linear_2_3" x1="-16494.8" y1="-5553.99" x2="-5770.55" y2="-35018.6" gradientUnits="userSpaceOnUse">
<stop stop-color="#29FFBF"/>
<stop offset="1" stop-color="#8730DF"/>
</linearGradient>
<linearGradient id="paint31_linear_2_3" x1="-14646.5" y1="-6972.89" x2="-1165.99" y2="-33814.8" gradientUnits="userSpaceOnUse">
<stop stop-color="#29FFBF"/>
<stop offset="1" stop-color="#8730DF"/>
</linearGradient>
<linearGradient id="paint32_linear_2_3" x1="-13000" y1="-8238.92" x2="2783.26" y2="-32236.2" gradientUnits="userSpaceOnUse">
<stop stop-color="#29FFBF"/>
<stop offset="1" stop-color="#8730DF"/>
</linearGradient>
<linearGradient id="paint33_linear_2_3" x1="-11272.8" y1="-9227.39" x2="6347.4" y2="-30226.4" gradientUnits="userSpaceOnUse">
<stop stop-color="#29FFBF"/>
<stop offset="1" stop-color="#8730DF"/>
</linearGradient>
<linearGradient id="paint34_linear_2_3" x1="-9505.33" y1="-9936.32" x2="9484.44" y2="-27852.2" gradientUnits="userSpaceOnUse">
<stop stop-color="#29FFBF"/>
<stop offset="1" stop-color="#8730DF"/>
</linearGradient>
<linearGradient id="paint35_linear_2_3" x1="-7739.03" y1="-10374.2" x2="12011.1" y2="-25077.6" gradientUnits="userSpaceOnUse">
<stop stop-color="#29FFBF"/>
<stop offset="1" stop-color="#8730DF"/>
</linearGradient>
<linearGradient id="paint36_linear_2_3" x1="-6144.74" y1="-10774.6" x2="14047.4" y2="-22432.6" gradientUnits="userSpaceOnUse">
<stop stop-color="#29FFBF"/>
<stop offset="1" stop-color="#8730DF"/>
</linearGradient>
<linearGradient id="paint37_linear_2_3" x1="-4476.35" y1="-10726.2" x2="15973.9" y2="-19547.6" gradientUnits="userSpaceOnUse">
<stop stop-color="#29FFBF"/>
<stop offset="1" stop-color="#8730DF"/>
</linearGradient>
<linearGradient id="paint38_linear_2_3" x1="-2905.92" y1="-10433.9" x2="17196.7" y2="-16452.2" gradientUnits="userSpaceOnUse">
<stop stop-color="#29FFBF"/>
<stop offset="1" stop-color="#8730DF"/>
</linearGradient>
<linearGradient id="paint39_linear_2_3" x1="-1474.94" y1="-9941.4" x2="17927.4" y2="-13362.6" gradientUnits="userSpaceOnUse">
<stop stop-color="#29FFBF"/>
<stop offset="1" stop-color="#8730DF"/>
</linearGradient>
<linearGradient id="paint40_linear_2_3" x1="-207.236" y1="-9282.2" x2="18187.5" y2="-10353.6" gradientUnits="userSpaceOnUse">
<stop stop-color="#29FFBF"/>
<stop offset="1" stop-color="#8730DF"/>
</linearGradient>
<linearGradient id="paint41_linear_2_3" x1="880.133" y1="-8489.01" x2="18004.5" y2="-7491.63" gradientUnits="userSpaceOnUse">
<stop stop-color="#29FFBF"/>
<stop offset="1" stop-color="#8730DF"/>
</linearGradient>
<linearGradient id="paint42_linear_2_3" x1="1776.3" y1="-7598.79" x2="17424.7" y2="-4839.55" gradientUnits="userSpaceOnUse">
<stop stop-color="#29FFBF"/>
<stop offset="1" stop-color="#8730DF"/>
</linearGradient>
<linearGradient id="paint43_linear_2_3" x1="2477.35" y1="-6648.28" x2="16497.4" y2="-2450.97" gradientUnits="userSpaceOnUse">
<stop stop-color="#29FFBF"/>
<stop offset="1" stop-color="#8730DF"/>
</linearGradient>
<linearGradient id="paint44_linear_2_3" x1="2985.09" y1="-5670.85" x2="15276" y2="-369.082" gradientUnits="userSpaceOnUse">
<stop stop-color="#29FFBF"/>
<stop offset="1" stop-color="#8730DF"/>
</linearGradient>
<linearGradient id="paint45_linear_2_3" x1="2949.06" y1="-4073.69" x2="13232" y2="1863.15" gradientUnits="userSpaceOnUse">
<stop stop-color="#29FFBF"/>
<stop offset="1" stop-color="#8730DF"/>
</linearGradient>
<linearGradient id="paint46_linear_2_3" x1="3515.43" y1="-3849.14" x2="12613" y2="2923.78" gradientUnits="userSpaceOnUse">
<stop stop-color="#29FFBF"/>
<stop offset="1" stop-color="#8730DF"/>
</linearGradient>
<linearGradient id="paint47_linear_2_3" x1="3516.77" y1="-2965.19" x2="10846.3" y2="3949.91" gradientUnits="userSpaceOnUse">
<stop stop-color="#29FFBF"/>
<stop offset="1" stop-color="#8730DF"/>
</linearGradient>
<linearGradient id="paint48_linear_2_3" x1="2085.61" y1="-1069.89" x2="6919.83" y2="4691.3" gradientUnits="userSpaceOnUse">
<stop stop-color="#29FFBF"/>
<stop offset="1" stop-color="#8730DF"/>
</linearGradient>
<linearGradient id="paint49_linear_2_3" x1="841.333" y1="51.6964" x2="2323.68" y2="2305.49" gradientUnits="userSpaceOnUse">
<stop stop-color="#29FFBF"/>
<stop offset="1" stop-color="#8730DF"/>
</linearGradient>
<linearGradient id="paint50_linear_2_3" x1="784.698" y1="143.867" x2="1784.33" y2="2134.3" gradientUnits="userSpaceOnUse">
<stop stop-color="#29FFBF"/>
<stop offset="1" stop-color="#8730DF"/>
</linearGradient>
<linearGradient id="paint51_linear_2_3" x1="718.717" y1="214.993" x2="1322.35" y2="1873.46" gradientUnits="userSpaceOnUse">
<stop stop-color="#29FFBF"/>
<stop offset="1" stop-color="#8730DF"/>
</linearGradient>
<linearGradient id="paint52_linear_2_3" x1="647.254" y1="265.207" x2="949.751" y2="1541.54" gradientUnits="userSpaceOnUse">
<stop stop-color="#29FFBF"/>
<stop offset="1" stop-color="#8730DF"/>
</linearGradient>
<linearGradient id="paint53_linear_2_3" x1="574.097" y1="295.192" x2="674.665" y2="1155.6" gradientUnits="userSpaceOnUse">
<stop stop-color="#29FFBF"/>
<stop offset="1" stop-color="#8730DF"/>
</linearGradient>
</defs>
</svg>
