<svg xmlns="http://www.w3.org/2000/svg" version="1.1" xmlns:xlink="http://www.w3.org/1999/xlink" xmlns:svgjs="http://svgjs.dev/svgjs" viewBox="0 0 800 800" opacity="0.98"><defs><linearGradient x1="50%" y1="0%" x2="50%" y2="100%" id="nnneon-grad"><stop stop-color="hsl(162, 100%, 58%)" stop-opacity="1" offset="0%"></stop><stop stop-color="hsl(270, 73%, 53%)" stop-opacity="1" offset="100%"></stop></linearGradient><filter id="nnneon-filter" x="-100%" y="-100%" width="400%" height="400%" filterUnits="objectBoundingBox" primitiveUnits="userSpaceOnUse" color-interpolation-filters="sRGB">
	<feGaussianBlur stdDeviation="54 54" x="0%" y="0%" width="100%" height="100%" in="SourceGraphic" edgeMode="none" result="blur"></feGaussianBlur></filter><filter id="nnneon-filter2" x="-100%" y="-100%" width="400%" height="400%" filterUnits="objectBoundingBox" primitiveUnits="userSpaceOnUse" color-interpolation-filters="sRGB">
	<feGaussianBlur stdDeviation="10 17" x="0%" y="0%" width="100%" height="100%" in="SourceGraphic" edgeMode="none" result="blur"></feGaussianBlur></filter></defs><g stroke-width="14.5" stroke="url(#nnneon-grad)" fill="none"><path d="M384.3345845390813 174.062418834543C394.0283436262978 168.46673243190278 405.9716563737022 168.46673243190278 415.6654154609187 174.06398537608908L587.8345975426 273.46574610025664C597.5283566298165 279.0614325028968 603.5000130035187 289.4053063317415 603.5000130035187 300.598245678568V499.4017671269032C603.5000130035187 510.59470647372973 597.5283566298165 520.9385803025743 587.8345975426 526.5358332467606L415.6654154609187 625.9375939709281C405.9716563737022 631.5332803735682 394.0283436262978 631.5332803735682 384.3345845390813 625.936027429382L212.16540245740003 526.5342667052145C202.47164337018353 520.9385803025743 196.4999869964813 510.59470647372973 196.4999869964813 499.4017671269032V300.598245678568C196.4999869964813 289.4053063317415 202.47164337018353 279.0614325028968 212.16540245740003 273.4641795587106L384.3345845390813 174.062418834543Z " filter="url(#nnneon-filter)"></path><path d="M384.3345845390813 174.062418834543C394.0283436262978 168.46673243190278 405.9716563737022 168.46673243190278 415.6654154609187 174.06398537608908L587.8345975426 273.46574610025664C597.5283566298165 279.0614325028968 603.5000130035187 289.4053063317415 603.5000130035187 300.598245678568V499.4017671269032C603.5000130035187 510.59470647372973 597.5283566298165 520.9385803025743 587.8345975426 526.5358332467606L415.6654154609187 625.9375939709281C405.9716563737022 631.5332803735682 394.0283436262978 631.5332803735682 384.3345845390813 625.936027429382L212.16540245740003 526.5342667052145C202.47164337018353 520.9385803025743 196.4999869964813 510.59470647372973 196.4999869964813 499.4017671269032V300.598245678568C196.4999869964813 289.4053063317415 202.47164337018353 279.0614325028968 212.16540245740003 273.4641795587106L384.3345845390813 174.062418834543Z " filter="url(#nnneon-filter2)" opacity="0"></path><path d="M384.3345845390813 174.062418834543C394.0283436262978 168.46673243190278 405.9716563737022 168.46673243190278 415.6654154609187 174.06398537608908L587.8345975426 273.46574610025664C597.5283566298165 279.0614325028968 603.5000130035187 289.4053063317415 603.5000130035187 300.598245678568V499.4017671269032C603.5000130035187 510.59470647372973 597.5283566298165 520.9385803025743 587.8345975426 526.5358332467606L415.6654154609187 625.9375939709281C405.9716563737022 631.5332803735682 394.0283436262978 631.5332803735682 384.3345845390813 625.936027429382L212.16540245740003 526.5342667052145C202.47164337018353 520.9385803025743 196.4999869964813 510.59470647372973 196.4999869964813 499.4017671269032V300.598245678568C196.4999869964813 289.4053063317415 202.47164337018353 279.0614325028968 212.16540245740003 273.4641795587106L384.3345845390813 174.062418834543Z " filter="url(#nnneon-filter2)" opacity="0"></path><path d="M384.3345845390813 174.062418834543C394.0283436262978 168.46673243190278 405.9716563737022 168.46673243190278 415.6654154609187 174.06398537608908L587.8345975426 273.46574610025664C597.5283566298165 279.0614325028968 603.5000130035187 289.4053063317415 603.5000130035187 300.598245678568V499.4017671269032C603.5000130035187 510.59470647372973 597.5283566298165 520.9385803025743 587.8345975426 526.5358332467606L415.6654154609187 625.9375939709281C405.9716563737022 631.5332803735682 394.0283436262978 631.5332803735682 384.3345845390813 625.936027429382L212.16540245740003 526.5342667052145C202.47164337018353 520.9385803025743 196.4999869964813 510.59470647372973 196.4999869964813 499.4017671269032V300.598245678568C196.4999869964813 289.4053063317415 202.47164337018353 279.0614325028968 212.16540245740003 273.4641795587106L384.3345845390813 174.062418834543Z "></path></g></svg>